<svg id="logos" xmlns="http://www.w3.org/2000/svg" width="89.736" height="19.933" viewBox="0 0 89.736 19.933">
  <g id="layer1" transform="translate(2.377 -189.257)">
    <path id="path393" d="M7.63,15.872c1.24-.02,7.406-4.741,7.808-5.978s-1.81-8.68-2.8-9.425S4.111-.155,3.1.622-.362,8.917,0,10.142,6.389,15.892,7.63,15.872Z" transform="translate(-2.335 194.091) rotate(-18.079)" fill="#fdb934" fill-rule="evenodd"/>
    <path id="text393" d="M4.3.143h-1.8v5.2c0,.794-.392,1.109-.909,1.109A1.989,1.989,0,0,1,.574,5.92L0,7.422a2.732,2.732,0,0,0,1.846.756A2.174,2.174,0,0,0,4.3,5.805ZM8.072,0A2.5,2.5,0,0,0,5.5,2.41,2.354,2.354,0,0,0,7,4.438c.937.469,1.779.727,1.779,1.3,0,.736-.746.775-1.138.775A3.853,3.853,0,0,1,5.71,5.624l-.9,1.511A4.61,4.61,0,0,0,7.776,8.177c1.54,0,2.974-.66,2.974-2.544,0-1.033-.966-1.779-1.846-2.152-.9-.383-1.645-.7-1.645-1.138s.325-.708.937-.708a3.255,3.255,0,0,1,1.6.545L10.52.746A4.486,4.486,0,0,0,8.072,0Z" transform="matrix(1, -0.009, 0.009, 1, 1.656, 194.657)" fill="#f9f9f9"/>
    <path id="path394" d="M17.572,193.091v7.295h2.2v-7.295Z" transform="translate(1.114 0.351)" fill="#333"/>
    <path id="path396" d="M21.054,194.083V200.4H22.9V196.4l4.163,4.007h1.848v-6.322H27.065V198.1L22.9,194.083Z" transform="translate(1.406 0.406)" fill="#333"/>
    <path id="path397" d="M32.755,194.083a3.536,3.536,0,0,0-1.021.146,2.877,2.877,0,0,0-.856.389,2.1,2.1,0,0,0-.593.6,1.4,1.4,0,0,0-.214.759,1.446,1.446,0,0,0,.214.768,2.152,2.152,0,0,0,.593.593,3.064,3.064,0,0,0,.856.4,3.771,3.771,0,0,0,1.021.136h1.9a1.044,1.044,0,0,1,.35.058.991.991,0,0,1,.3.136.718.718,0,0,1,.214.2.355.355,0,0,1,0,.467.837.837,0,0,1-.214.214,1.185,1.185,0,0,1-.3.146,1.234,1.234,0,0,1-.35.049h-4.26V200.4h4.425a3.771,3.771,0,0,0,1.021-.136,3.063,3.063,0,0,0,.856-.4,2.029,2.029,0,0,0,.584-.593,1.4,1.4,0,0,0,.224-.768,1.26,1.26,0,0,0-.224-.7,2.14,2.14,0,0,0-.584-.6,2.941,2.941,0,0,0-.856-.428,3.151,3.151,0,0,0-1.021-.165h-1.9a1.338,1.338,0,0,1-.36-.049,1.444,1.444,0,0,1-.3-.146,1.292,1.292,0,0,1-.214-.2.389.389,0,0,1,0-.467.918.918,0,0,1,.214-.2,1,1,0,0,1,.3-.146,1.129,1.129,0,0,1,.36-.058h4.26v-1.255Z" transform="translate(1.94 0.406)" fill="#333"/>
    <path id="path398" d="M45.885,195.328h-2.86V200.4h-1.9v-5.067H38.3v-1.245h7.587Z" transform="translate(2.439 0.405)" fill="#333"/>
    <path id="path399" d="M47.062,194.073V200.4h1.906v-6.322Z" transform="translate(2.764 0.405)" fill="#333"/>
    <path id="path400" d="M57.489,195.328h-2.86V200.4h-1.9v-5.067H49.9v-1.245h7.587Z" transform="translate(3.138 0.405)" fill="#333"/>
    <path id="path401" d="M58.306,194.073v2.84a4.19,4.19,0,0,0,.214,1.352,3.077,3.077,0,0,0,.652,1.109,3.272,3.272,0,0,0,1.128.749,4.476,4.476,0,0,0,1.644.272,4.6,4.6,0,0,0,1.653-.272,3.519,3.519,0,0,0,1.2-.749,3.039,3.039,0,0,0,.71-1.109,3.733,3.733,0,0,0,.243-1.352v-2.84h-1.9v2.84a2.417,2.417,0,0,1-.117.768,1.576,1.576,0,0,1-.36.6,1.622,1.622,0,0,1-.593.4,2.357,2.357,0,0,1-.836.136,2.2,2.2,0,0,1-.817-.136,1.486,1.486,0,0,1-.545-.4,1.649,1.649,0,0,1-.3-.6,3.165,3.165,0,0,1-.088-.768v-2.84Z" transform="translate(3.637 0.405)" fill="#333"/>
    <path id="path402" d="M74.14,195.328h-2.86V200.4h-1.9v-5.067h-2.83v-1.245H74.14Z" transform="translate(4.655 0.405)" fill="#333"/>
    <path id="path403" d="M75.424,194.083V200.4h7.1v-1.264h-5.2v-1.265H81.26v-1.255H77.321v-1.264h5.2v-1.265Z" transform="translate(4.655 0.405)" fill="#333"/>
    <path id="text403" d="M18.972,204.541a1.3,1.3,0,0,1-.627-.153,1.154,1.154,0,0,1-.438-.425,1.247,1.247,0,0,1,0-1.208,1.13,1.13,0,0,1,.438-.421,1.274,1.274,0,0,1,.627-.156,1.258,1.258,0,0,1,.62.153,1.123,1.123,0,0,1,.438.425,1.162,1.162,0,0,1,.159.6,1.18,1.18,0,0,1-.159.607,1.13,1.13,0,0,1-.438.421A1.258,1.258,0,0,1,18.972,204.541Zm0-.219a1.012,1.012,0,0,0,.5-.123.916.916,0,0,0,.348-.345.984.984,0,0,0,.126-.494.966.966,0,0,0-.126-.491.886.886,0,0,0-.348-.345.991.991,0,0,0-.5-.126,1.009,1.009,0,0,0-.5.126.909.909,0,0,0-.352.345.966.966,0,0,0-.126.491.985.985,0,0,0,.126.494.94.94,0,0,0,.352.345A1.031,1.031,0,0,0,18.972,204.322Zm2.618-1.56a.886.886,0,0,1,.445.113.784.784,0,0,1,.312.312,1.006,1.006,0,0,1,0,.926.806.806,0,0,1-.312.315.9.9,0,0,1-.445.109.849.849,0,0,1-.385-.086.743.743,0,0,1-.279-.259v.972h-.236v-2.389h.226v.345a.729.729,0,0,1,.279-.265A.832.832,0,0,1,21.59,202.763Zm-.017,1.566a.672.672,0,0,0,.332-.083.6.6,0,0,0,.232-.242.721.721,0,0,0,.086-.355.7.7,0,0,0-.086-.352.6.6,0,0,0-.232-.242.688.688,0,0,0-.667,0,.628.628,0,0,0-.232.242.725.725,0,0,0-.083.352.744.744,0,0,0,.083.355.628.628,0,0,0,.232.242A.678.678,0,0,0,21.573,204.329Zm2.887-.607H23a.63.63,0,0,0,.209.441.7.7,0,0,0,.478.166.772.772,0,0,0,.3-.056.67.67,0,0,0,.236-.173l.133.153a.745.745,0,0,1-.292.212.97.97,0,0,1-.382.073.99.99,0,0,1-.478-.113.84.84,0,0,1-.322-.319.9.9,0,0,1-.116-.458.947.947,0,0,1,.109-.458.82.82,0,0,1,.305-.315.861.861,0,0,1,.438-.113.843.843,0,0,1,.435.113.8.8,0,0,1,.3.315.934.934,0,0,1,.109.458Zm-.843-.757a.6.6,0,0,0-.425.163.629.629,0,0,0-.192.418h1.238a.622.622,0,0,0-.2-.418A.589.589,0,0,0,23.617,202.965Zm2.217-.2a.7.7,0,0,1,.521.192.736.736,0,0,1,.2.554v1.012h-.236v-.989a.579.579,0,0,0-.136-.415.511.511,0,0,0-.388-.143.6.6,0,0,0-.448.169.631.631,0,0,0-.163.461v.916h-.236v-1.745h.226v.322a.647.647,0,0,1,.265-.246A.852.852,0,0,1,25.834,202.763Zm3.919,1.546v.212H28.11V202.2H29.7v.212H28.356v.826h1.2v.209h-1.2v.863Zm2.094-2.25v2.462h-.226v-.345a.715.715,0,0,1-.282.269.813.813,0,0,1-.392.093.886.886,0,0,1-.445-.113.806.806,0,0,1-.312-.315,1,1,0,0,1,0-.922.784.784,0,0,1,.312-.312.886.886,0,0,1,.445-.113.8.8,0,0,1,.382.09.711.711,0,0,1,.282.256v-1.049Zm-.879,2.27a.653.653,0,0,0,.328-.083.6.6,0,0,0,.232-.242.774.774,0,0,0,0-.71.576.576,0,0,0-.232-.239.633.633,0,0,0-.328-.086.658.658,0,0,0-.335.086.6.6,0,0,0-.232.239.8.8,0,0,0,0,.71.628.628,0,0,0,.232.242A.678.678,0,0,0,30.967,204.329Zm3.109-1.553v1.745H33.85V204.2a.658.658,0,0,1-.255.249.781.781,0,0,1-.372.086.672.672,0,0,1-.737-.75v-1.012h.236v.989a.584.584,0,0,0,.136.418.511.511,0,0,0,.388.143.574.574,0,0,0,.435-.166.655.655,0,0,0,.159-.468v-.916Zm1.384,1.762a.95.95,0,0,1-.465-.113.823.823,0,0,1-.319-.315.922.922,0,0,1-.116-.461.9.9,0,0,1,.116-.458.823.823,0,0,1,.319-.315.95.95,0,0,1,.465-.113.872.872,0,0,1,.4.09.657.657,0,0,1,.282.256l-.176.119a.538.538,0,0,0-.219-.192.637.637,0,0,0-.289-.066.682.682,0,0,0-.342.086.6.6,0,0,0-.236.239.808.808,0,0,0,0,.713.627.627,0,0,0,.236.239.7.7,0,0,0,.342.083.664.664,0,0,0,.289-.063.538.538,0,0,0,.219-.192l.176.119a.678.678,0,0,1-.282.259A.914.914,0,0,1,35.46,204.538Zm1.755-1.775a.734.734,0,0,1,.524.173.655.655,0,0,1,.182.5v1.082H37.7v-.272a.539.539,0,0,1-.236.212.808.808,0,0,1-.365.076.718.718,0,0,1-.465-.139.481.481,0,0,1-.013-.727.8.8,0,0,1,.514-.136h.554v-.106a.442.442,0,0,0-.126-.342.516.516,0,0,0-.368-.119.912.912,0,0,0-.319.056.78.78,0,0,0-.262.149L36.505,203a.92.92,0,0,1,.319-.173A1.21,1.21,0,0,1,37.215,202.763Zm-.083,1.589a.63.63,0,0,0,.342-.09.554.554,0,0,0,.212-.265v-.285h-.547q-.448,0-.448.312a.29.29,0,0,0,.116.242A.536.536,0,0,0,37.132,204.352Zm2.349.063a.463.463,0,0,1-.166.093.679.679,0,0,1-.2.03.462.462,0,0,1-.511-.508v-1.055H38.29v-.2H38.6v-.382h.236v.382h.531v.2h-.531v1.042a.341.341,0,0,0,.076.239.305.305,0,0,0,.226.08.419.419,0,0,0,.139-.023.348.348,0,0,0,.119-.066Zm.428-1.639h.236v1.745h-.236Zm.119-.382a.167.167,0,0,1-.123-.05.163.163,0,0,1-.05-.119.159.159,0,0,1,.05-.116.176.176,0,0,1,.246,0,.149.149,0,0,1,.05.113.17.17,0,0,1-.173.173Zm1.487,2.144a.918.918,0,0,1-.455-.113.847.847,0,0,1-.319-.319.961.961,0,0,1,0-.916.823.823,0,0,1,.319-.315.972.972,0,0,1,.909,0,.8.8,0,0,1,.315.315.961.961,0,0,1,0,.916.823.823,0,0,1-.315.319A.918.918,0,0,1,41.515,204.538Zm0-.209a.66.66,0,0,0,.332-.083.6.6,0,0,0,.232-.242.8.8,0,0,0,0-.71.576.576,0,0,0-.232-.239.64.64,0,0,0-.332-.086.658.658,0,0,0-.335.086.6.6,0,0,0-.232.239.8.8,0,0,0,0,.71.628.628,0,0,0,.232.242A.678.678,0,0,0,41.515,204.329Zm2.256-1.566a.7.7,0,0,1,.521.192.736.736,0,0,1,.2.554v1.012h-.236v-.989a.579.579,0,0,0-.136-.415.511.511,0,0,0-.388-.143.6.6,0,0,0-.448.169.631.631,0,0,0-.163.461v.916h-.236v-1.745h.226v.322a.647.647,0,0,1,.265-.246A.852.852,0,0,1,43.772,202.763Zm3.939,1.8-.322-.332a1.014,1.014,0,0,1-.776.315,1.065,1.065,0,0,1-.4-.073.667.667,0,0,1-.275-.209.509.509,0,0,1-.1-.309.584.584,0,0,1,.133-.375,1.6,1.6,0,0,1,.451-.348,1.406,1.406,0,0,1-.229-.292.559.559,0,0,1-.063-.259.448.448,0,0,1,.159-.358.637.637,0,0,1,.428-.136.594.594,0,0,1,.395.123.418.418,0,0,1,.146.338.475.475,0,0,1-.116.312,1.594,1.594,0,0,1-.4.3l.637.657a1.483,1.483,0,0,0,.156-.448l.192.06a1.548,1.548,0,0,1-.206.534l.332.342Zm-1-2.2a.4.4,0,0,0-.272.086.293.293,0,0,0-.1.229.389.389,0,0,0,.053.2,1.415,1.415,0,0,0,.209.252,1.6,1.6,0,0,0,.348-.249.324.324,0,0,0,.1-.226.26.26,0,0,0-.09-.209A.362.362,0,0,0,46.712,202.358Zm-.086,1.988a.8.8,0,0,0,.624-.262l-.7-.72a1.441,1.441,0,0,0-.382.282.435.435,0,0,0-.1.282.365.365,0,0,0,.153.305A.68.68,0,0,0,46.625,204.346Zm2.512-2.147h.946a1.369,1.369,0,0,1,.65.149,1.063,1.063,0,0,1,.438.411,1.152,1.152,0,0,1,.156.6,1.17,1.17,0,0,1-.156.6,1.092,1.092,0,0,1-.438.411,1.4,1.4,0,0,1-.65.146h-.946Zm.932,2.11a1.139,1.139,0,0,0,.534-.119.9.9,0,0,0,.355-.335.961.961,0,0,0,.126-.494.944.944,0,0,0-.126-.491.865.865,0,0,0-.355-.335,1.114,1.114,0,0,0-.534-.123h-.687v1.9Zm3.278-.587h-1.46a.63.63,0,0,0,.209.441.7.7,0,0,0,.478.166.772.772,0,0,0,.3-.056.67.67,0,0,0,.236-.173l.133.153a.745.745,0,0,1-.292.212.97.97,0,0,1-.382.073.99.99,0,0,1-.478-.113.84.84,0,0,1-.322-.319.9.9,0,0,1-.116-.458.947.947,0,0,1,.109-.458.82.82,0,0,1,.305-.315.861.861,0,0,1,.438-.113.843.843,0,0,1,.435.113.8.8,0,0,1,.3.315.934.934,0,0,1,.109.458Zm-.843-.757a.6.6,0,0,0-.425.163.629.629,0,0,0-.192.418h1.238a.622.622,0,0,0-.2-.418A.589.589,0,0,0,52.505,202.965Zm2.761-.189-.776,1.745h-.242l-.773-1.745h.246l.654,1.487.66-1.487Zm1.8.946h-1.46a.63.63,0,0,0,.209.441.7.7,0,0,0,.478.166.772.772,0,0,0,.3-.056.67.67,0,0,0,.236-.173l.133.153a.745.745,0,0,1-.292.212.97.97,0,0,1-.382.073.99.99,0,0,1-.478-.113.84.84,0,0,1-.322-.319.9.9,0,0,1-.116-.458.947.947,0,0,1,.109-.458.82.82,0,0,1,.305-.315.861.861,0,0,1,.438-.113.843.843,0,0,1,.435.113.8.8,0,0,1,.3.315.934.934,0,0,1,.109.458Zm-.843-.757a.6.6,0,0,0-.425.163.629.629,0,0,0-.192.418h1.238a.622.622,0,0,0-.2-.418A.589.589,0,0,0,56.225,202.965Zm1.327-.906h.236v2.462h-.236Zm1.606,2.479a.918.918,0,0,1-.455-.113.847.847,0,0,1-.319-.319.961.961,0,0,1,0-.916.823.823,0,0,1,.319-.315.972.972,0,0,1,.909,0,.8.8,0,0,1,.315.315.961.961,0,0,1,0,.916.823.823,0,0,1-.315.319A.918.918,0,0,1,59.158,204.538Zm0-.209a.66.66,0,0,0,.332-.083.6.6,0,0,0,.232-.242.8.8,0,0,0,0-.71.576.576,0,0,0-.232-.239.64.64,0,0,0-.332-.086.658.658,0,0,0-.335.086.6.6,0,0,0-.232.239.8.8,0,0,0,0,.71.628.628,0,0,0,.232.242A.678.678,0,0,0,59.158,204.329Zm2.266-1.566a.886.886,0,0,1,.445.113.784.784,0,0,1,.312.312,1.006,1.006,0,0,1,0,.926.806.806,0,0,1-.312.315.9.9,0,0,1-.445.109.849.849,0,0,1-.385-.086.743.743,0,0,1-.279-.259v.972h-.236v-2.389h.226v.345a.729.729,0,0,1,.279-.265A.832.832,0,0,1,61.424,202.763Zm-.017,1.566a.672.672,0,0,0,.332-.083.6.6,0,0,0,.232-.242.721.721,0,0,0,.086-.355.7.7,0,0,0-.086-.352.6.6,0,0,0-.232-.242.688.688,0,0,0-.667,0,.628.628,0,0,0-.232.242.725.725,0,0,0-.083.352.744.744,0,0,0,.083.355.628.628,0,0,0,.232.242A.678.678,0,0,0,61.408,204.329Zm3.544-1.566a.688.688,0,0,1,.514.189.756.756,0,0,1,.189.557v1.012h-.236v-.989a.588.588,0,0,0-.133-.415.472.472,0,0,0-.368-.143.553.553,0,0,0-.428.169.647.647,0,0,0-.156.461v.916H64.1v-.989a.588.588,0,0,0-.133-.415.476.476,0,0,0-.372-.143.56.56,0,0,0-.428.169.647.647,0,0,0-.156.461v.916h-.236v-1.745H63v.319a.629.629,0,0,1,.259-.246.815.815,0,0,1,.382-.086.738.738,0,0,1,.378.093.569.569,0,0,1,.242.275.672.672,0,0,1,.275-.269A.852.852,0,0,1,64.952,202.763Zm2.87.959h-1.46a.63.63,0,0,0,.209.441.7.7,0,0,0,.478.166.772.772,0,0,0,.3-.056.67.67,0,0,0,.236-.173l.133.153a.745.745,0,0,1-.292.212.97.97,0,0,1-.382.073.99.99,0,0,1-.478-.113.84.84,0,0,1-.322-.319.9.9,0,0,1-.116-.458.947.947,0,0,1,.109-.458.82.82,0,0,1,.305-.315.861.861,0,0,1,.438-.113.843.843,0,0,1,.435.113.8.8,0,0,1,.3.315.934.934,0,0,1,.109.458Zm-.843-.757a.6.6,0,0,0-.425.163.629.629,0,0,0-.192.418H67.6a.622.622,0,0,0-.2-.418A.589.589,0,0,0,66.979,202.965Zm2.217-.2a.7.7,0,0,1,.521.192.736.736,0,0,1,.2.554v1.012h-.236v-.989a.579.579,0,0,0-.136-.415.511.511,0,0,0-.388-.143.6.6,0,0,0-.448.169.631.631,0,0,0-.163.461v.916h-.236v-1.745h.226v.322a.647.647,0,0,1,.265-.246A.852.852,0,0,1,69.2,202.763Zm2.276,1.652a.463.463,0,0,1-.166.093.679.679,0,0,1-.2.03.462.462,0,0,1-.511-.508v-1.055H70.28v-.2h.312v-.382h.236v.382h.531v.2h-.531v1.042a.341.341,0,0,0,.076.239.305.305,0,0,0,.226.08.419.419,0,0,0,.139-.023.348.348,0,0,0,.119-.066Zm2.983-1.055h.236v.886a1.135,1.135,0,0,1-.385.219,1.431,1.431,0,0,1-.468.076,1.284,1.284,0,0,1-.627-.153,1.13,1.13,0,0,1-.438-.421,1.18,1.18,0,0,1-.159-.607,1.162,1.162,0,0,1,.159-.6,1.123,1.123,0,0,1,.438-.425,1.291,1.291,0,0,1,.63-.153,1.337,1.337,0,0,1,.488.086.954.954,0,0,1,.375.249l-.153.156a.955.955,0,0,0-.7-.272,1.041,1.041,0,0,0-.511.126.9.9,0,0,0-.355.345,1,1,0,0,0,0,.982.934.934,0,0,0,.355.345,1.023,1.023,0,0,0,.508.126,1.012,1.012,0,0,0,.607-.179Zm1.1-.242a.573.573,0,0,1,.246-.265.85.85,0,0,1,.408-.09v.229l-.056,0a.557.557,0,0,0-.431.169.674.674,0,0,0-.156.475v.889h-.236v-1.745h.226Zm1.775,1.42a.918.918,0,0,1-.455-.113.847.847,0,0,1-.319-.319.961.961,0,0,1,0-.916.823.823,0,0,1,.319-.315.972.972,0,0,1,.909,0,.8.8,0,0,1,.315.315.961.961,0,0,1,0,.916.823.823,0,0,1-.315.319A.918.918,0,0,1,77.335,204.538Zm0-.209a.66.66,0,0,0,.332-.083A.6.6,0,0,0,77.9,204a.8.8,0,0,0,0-.71.576.576,0,0,0-.232-.239.64.64,0,0,0-.332-.086.658.658,0,0,0-.335.086.6.6,0,0,0-.232.239.8.8,0,0,0,0,.71.628.628,0,0,0,.232.242A.678.678,0,0,0,77.335,204.329Zm2.94-1.553v1.745h-.226V204.2a.658.658,0,0,1-.256.249.781.781,0,0,1-.372.086.672.672,0,0,1-.737-.75v-1.012h.236v.989a.584.584,0,0,0,.136.418.511.511,0,0,0,.388.143.574.574,0,0,0,.435-.166.656.656,0,0,0,.159-.468v-.916Zm1.56-.013a.886.886,0,0,1,.445.113.784.784,0,0,1,.312.312,1.006,1.006,0,0,1,0,.926.806.806,0,0,1-.312.315.9.9,0,0,1-.445.109.849.849,0,0,1-.385-.086.743.743,0,0,1-.279-.259v.972h-.236v-2.389h.226v.345a.729.729,0,0,1,.279-.265A.832.832,0,0,1,81.834,202.763Zm-.017,1.566a.672.672,0,0,0,.332-.083.6.6,0,0,0,.232-.242.721.721,0,0,0,.086-.355.7.7,0,0,0-.086-.352.6.6,0,0,0-.232-.242.688.688,0,0,0-.667,0,.628.628,0,0,0-.232.242.725.725,0,0,0-.083.352.744.744,0,0,0,.083.355.628.628,0,0,0,.232.242A.678.678,0,0,0,81.818,204.329Z" transform="translate(4.655 0.846)" fill="#333"/>
  </g>
</svg>
