<svg width="140" height="45" viewBox="0 0 140 45" fill="none" xmlns="http://www.w3.org/2000/svg">
<path fill-rule="evenodd" clip-rule="evenodd" d="M130.832 30.6869C131.155 30.4865 131.473 30.2861 131.782 30.0633C132.172 29.7763 132.556 29.4809 132.917 29.1591L133.039 29.0525L133.827 26.186L133.294 26.2089C132.814 26.2489 132.334 26.2942 131.858 26.3692C131.438 26.4361 131.026 26.5295 130.614 26.6349C130.435 26.6958 130.254 26.7551 130.074 26.8173C129.515 27.0345 129.019 27.2822 128.538 27.6385C128.314 27.8253 128.105 28.0287 127.912 28.2469C127.692 28.5316 127.501 28.8374 127.342 29.1595C127.219 29.4438 127.124 29.7391 127.057 30.0412C127.033 30.2091 127.017 30.3739 127.004 30.5426C127.023 30.7803 127.051 30.9762 127.181 31.1815C127.317 31.4147 127.571 31.5333 127.829 31.5822C128.192 31.6456 128.485 31.5899 128.841 31.5422C129.212 31.4539 129.571 31.3265 129.914 31.1622C130.227 31.0091 130.529 30.8472 130.833 30.6813L130.832 30.6869ZM130.74 23.6086C131.246 23.5148 131.757 23.4482 132.268 23.3877C132.902 23.3328 133.53 23.2979 134.168 23.2819H134.624L134.724 22.9088C134.85 22.4358 134.962 21.9581 135.064 21.4796C135.135 21.1429 135.173 20.8082 135.218 20.4684C135.264 19.8536 135.337 19.1859 134.755 18.8416L134.709 18.8183C134.259 18.5967 133.707 18.6059 133.218 18.6284C132.724 18.6753 132.241 18.8039 131.79 19.0087C131.225 19.2871 130.707 19.6484 130.253 20.0804C129.982 20.3342 129.729 20.6062 129.496 20.8944C129.235 21.2199 128.992 21.5545 128.755 21.8964L128.338 22.5364L127.797 22.3693C127.587 22.2937 127.383 22.2021 127.187 22.0956C126.795 21.8499 126.454 21.5433 126.244 21.1297C126.079 20.833 126.014 20.4921 126.059 20.1566C126.093 19.9339 126.163 19.7183 126.268 19.5181C126.494 19.0716 126.85 18.6764 127.248 18.3698C127.884 17.8789 128.577 17.5041 129.31 17.1759C129.874 16.925 130.456 16.7294 131.04 16.5302C131.561 16.3895 132.075 16.2449 132.607 16.1495C132.96 16.0894 133.312 16.0429 133.666 15.9976C134.201 15.9507 134.742 15.909 135.279 15.9294C135.547 15.9294 135.815 15.9391 136.082 15.9599C136.55 15.9964 137.015 16.0674 137.472 16.1723C137.765 16.2529 138.052 16.3547 138.33 16.4769C139.209 16.8837 139.791 17.5815 139.912 18.4917C139.969 18.8681 139.959 19.2514 139.881 19.6243C139.83 20.0952 139.689 20.5894 139.588 21.0535C139.497 21.5012 139.366 21.9601 139.241 22.3998L137.866 27.418C137.779 27.7166 137.707 28.0216 137.626 28.3222C137.545 28.6228 137.469 28.937 137.411 29.244C137.305 29.6511 137.23 30.0651 137.186 30.4829C137.042 31.2845 137.205 32.0239 137.565 32.7337L137.596 32.787L137.905 33.2964L137.294 33.692C137.066 33.8263 136.838 33.9637 136.607 34.0928C136.159 34.3276 135.707 34.5481 135.217 34.6851C134.328 34.9549 133.178 35.0354 132.468 34.3357C132.231 34.0246 132.142 33.6716 132.142 33.2864V32.8155L131.694 33.1197C131.402 33.3181 131.105 33.5124 130.799 33.69C130.365 33.9397 129.92 34.1581 129.463 34.3661C129.033 34.5449 128.592 34.6972 128.142 34.8222C127.428 34.9992 126.694 35.086 125.957 35.0807C125.63 35.06 125.305 35.0169 124.984 34.9517C124.118 34.7248 123.455 34.3104 122.953 33.5678C122.703 33.1986 122.562 32.7754 122.474 32.3437C122.407 31.8264 122.407 31.3028 122.474 30.7855C122.571 30.2523 122.713 29.7282 122.899 29.2188C123.03 28.9102 123.166 28.6108 123.324 28.3142C123.456 28.0826 123.596 27.8573 123.749 27.6373C124.179 27.0141 124.704 26.4846 125.285 25.994C125.512 25.8213 125.737 25.6454 125.972 25.4846C126.348 25.239 126.734 25.0177 127.131 24.8077C127.552 24.6073 127.967 24.4161 128.405 24.253C128.851 24.0838 129.308 23.9416 129.772 23.827C130.092 23.7436 130.414 23.6763 130.737 23.6065L130.74 23.6086ZM124.292 16.5755C125.02 17.0132 125.496 17.5775 125.272 18.4592C125.179 18.7656 125.033 19.0538 124.84 19.3109C124.509 19.6906 124.13 20.0273 123.713 20.3129C123.287 20.577 122.845 20.8054 122.4 21.0343C122.237 20.8187 122.074 20.6026 121.897 20.3954C121.282 19.6652 120.478 19.2732 119.537 19.141C119.096 19.1118 118.654 19.1221 118.216 19.1718C117.698 19.2527 117.193 19.3955 116.71 19.5971C116.14 19.8776 115.685 20.2079 115.22 20.6315C114.808 21.0538 114.443 21.5175 114.131 22.015C113.357 23.2975 112.839 24.7255 112.532 26.1892C112.354 27.0337 112.253 27.8513 112.301 28.7142C112.312 28.9245 112.343 29.1332 112.393 29.3378C112.646 30.5779 113.434 31.254 114.664 31.4973C115.158 31.5572 115.659 31.5596 116.154 31.5045C116.807 31.436 117.461 31.246 118.076 31.0235C118.312 30.9334 118.548 30.8412 118.779 30.743C119.427 30.438 120.046 30.127 120.664 29.7623C120.855 29.6577 121.105 29.4973 121.335 29.5342L121.366 29.5418C121.543 29.63 121.544 29.9659 121.544 30.1274C121.534 30.5295 121.482 30.9296 121.389 31.3213C121.301 31.6406 121.172 31.9473 121.003 32.2335C120.838 32.5054 120.63 32.749 120.386 32.9549C119.984 33.3201 119.501 33.6034 119.019 33.8519C118.725 33.9962 118.431 34.1325 118.131 34.2627C117.514 34.4988 116.902 34.6996 116.254 34.833C115.638 34.9535 115.013 35.0297 114.386 35.0611C112.864 35.1292 111.242 34.9773 109.867 34.3465C109.5 34.1613 109.154 33.9397 108.832 33.6852C108.311 33.2303 107.881 32.6992 107.605 32.0656C107.487 31.8001 107.392 31.5252 107.32 31.244C107.198 30.6877 107.129 30.1322 107.15 29.5639C107.15 29.0681 107.229 28.5855 107.297 28.0966C107.462 27.2898 107.681 26.4948 107.954 25.7167C108.22 25.0119 108.524 24.3215 108.865 23.6486C109.229 22.9947 109.629 22.3601 110.062 21.7477C110.457 21.2327 110.865 20.7353 111.305 20.2576C111.916 19.6152 112.574 19.0181 113.274 18.4708C113.868 17.9973 114.509 17.5846 115.187 17.2392C115.928 16.8657 116.703 16.565 117.504 16.3415C118.397 16.0931 119.317 15.9553 120.245 15.9314C121.346 15.8994 122.49 15.9214 123.542 16.2661C123.797 16.3531 124.047 16.4546 124.291 16.5699L124.292 16.5755ZM108.323 18.5979C108.345 19.0395 108.327 19.4821 108.269 19.9205C108.171 20.3865 108.045 20.8461 107.89 21.2968C107.764 21.6575 107.634 22.0182 107.512 22.3841C107.324 22.9521 107.12 23.5196 106.955 24.0947C106.736 24.7801 106.534 25.4738 106.353 26.1704C106.172 26.8838 106.007 27.6048 105.882 28.3298C105.792 28.8509 105.719 29.3719 105.659 29.8957C105.588 30.6143 105.587 31.2985 105.821 31.987C105.912 32.385 106.139 32.7886 106.316 33.1577L105.705 33.6138C105.404 33.8612 105.078 34.0776 104.733 34.2599C104.37 34.469 103.987 34.6423 103.589 34.7773C102.979 34.9272 102.394 35.033 101.783 34.8302C101.091 34.5204 100.918 33.9565 100.918 33.2415C100.918 32.7269 101.012 32.2191 101.095 31.7129C101.202 31.0837 101.325 30.4564 101.435 29.8292C101.56 29.228 101.692 28.6268 101.821 28.0256C101.922 27.602 102.022 27.1756 102.138 26.7555C102.324 25.9736 102.557 25.1997 102.786 24.431C102.986 23.7416 103.187 23.0495 103.397 22.3625C103.549 21.8583 103.745 21.2499 103.643 20.7193C103.572 20.3401 103.363 20.1453 103.003 20.0195C102.548 19.9201 102.101 20.0195 101.651 20.1029C100.905 20.2694 100.182 20.5221 99.4966 20.8555C99.1013 21.0549 98.7219 21.2836 98.3618 21.5397C98.1228 21.714 97.8928 21.9004 97.6588 22.0795C97.1413 22.5356 96.6562 23.0259 96.2068 23.5472L96.1608 23.6005L94.5778 29.2424C94.5261 29.4396 94.4789 29.6388 94.4235 29.8348C94.2713 30.4332 94.1577 31.0372 94.0604 31.6448C94.0462 31.7762 94.0295 31.9081 94.0218 32.0403C93.9877 32.3254 93.9826 32.6131 94.0063 32.8992C94.0184 33.0433 94.0443 33.186 94.0837 33.3253L94.2689 33.8495L94.2379 33.8724L94.1158 33.9561C93.9371 34.0812 93.7389 34.2262 93.5459 34.3212C92.9659 34.6463 92.2027 34.5821 91.5848 34.496C91.3886 34.4587 91.1973 34.4158 91.0055 34.3589C90.3575 34.1557 89.8585 33.7854 89.5845 33.1654C89.4905 32.9401 89.4559 32.7221 89.4298 32.4808C89.4156 32.0989 89.46 31.7171 89.5613 31.3482C89.6688 30.6885 89.8092 30.0388 89.9549 29.3867C90.2806 28.0806 90.6266 26.7792 90.9746 25.4786C91.2783 24.3536 91.5681 23.2242 91.8241 22.0876C92.0048 21.2439 92.1583 20.4042 92.2564 19.5482C92.3232 18.7534 92.3378 17.961 92.1172 17.1835C91.991 16.8709 91.8664 16.6517 91.6389 16.4004L91.6922 16.3603C92.1143 16.0906 92.5605 15.9359 93.0518 15.8353C93.7776 15.7138 94.5191 15.7138 95.245 15.8353C96.0261 16.0152 96.7393 16.3218 97.1752 17.014C97.4817 17.6192 97.4789 18.2424 97.3681 18.8921L97.1597 19.7209L97.8623 19.0444C98.3813 18.5738 98.9658 18.0825 99.5536 17.6985C99.7978 17.5482 100.039 17.3935 100.286 17.2496C100.729 17.0052 101.178 16.7543 101.645 16.5579C102.355 16.2717 103.082 16.0369 103.839 15.8966C104.327 15.8266 104.82 15.8011 105.313 15.8204C105.831 15.8805 106.29 15.9771 106.758 16.2084C107.675 16.7294 108.162 17.547 108.325 18.5955L108.323 18.5979ZM107.743 33.7738C108.879 35.0362 111.041 35.8118 113.859 35.6671C114.261 35.637 114.144 35.7356 113.859 35.7508L107.743 36.2679L106.64 36.3588L107.18 32.9449C107.326 33.2468 107.515 33.526 107.743 33.7738ZM90.5464 20.1189C90.6207 19.7658 90.6646 19.4071 90.6775 19.0468C90.6775 18.6516 90.6404 18.2853 90.5232 17.9061C90.2342 17.2076 89.7946 16.806 89.1099 16.4693C88.1737 16.0381 87.1031 15.9294 86.0835 15.9294C85.019 15.8894 83.9224 16.0361 82.8861 16.2561C82.4151 16.3611 81.9556 16.5002 81.496 16.6441C80.804 16.879 80.1284 17.1583 79.4734 17.4801L79.3268 17.5566L79.1795 17.6324L79.0329 17.7085L78.9019 17.7919L78.7627 17.8681L78.6406 17.9518C78.2139 18.2203 77.8244 18.5423 77.4821 18.9097L77.4047 19.0087L77.3274 19.1073L77.2582 19.2063L77.189 19.3049L77.1271 19.4115L77.073 19.5181L77.0266 19.6243L76.9798 19.7309L76.9415 19.8375L76.9028 19.9514L76.8797 20.0576L76.8642 20.1566C76.8383 20.3599 76.8521 20.5663 76.9049 20.7646C77.018 21.0984 77.1581 21.379 77.4227 21.6395C77.8875 22.1505 78.4985 22.3368 79.1445 22.5364C79.5963 21.8447 80.062 21.1738 80.6042 20.5445C81.2099 19.9165 81.8009 19.3987 82.5959 19.0087C82.8988 18.8746 83.2145 18.7702 83.5382 18.6969C84.0617 18.5987 84.7256 18.5494 85.2449 18.7197C85.427 18.7704 85.5974 18.8555 85.7464 18.9702C85.9829 19.2031 86.0171 19.4937 86.0477 19.8071C86.0488 20.1451 86.0282 20.4828 85.9858 20.8183C85.8877 21.3429 85.812 21.8775 85.6601 22.3918C85.5922 22.6899 85.5079 22.9865 85.4285 23.2819H84.9726C84.338 23.2987 83.7067 23.3332 83.0733 23.3877C81.9922 23.5128 80.9278 23.7084 79.8841 24.029C79.5059 24.14 79.1396 24.2831 78.772 24.4238C78.2818 24.6339 77.8048 24.8728 77.3437 25.1392C76.5491 25.6077 75.8099 26.1676 75.1892 26.8497C74.46 27.6448 73.91 28.5827 73.5752 29.6019C73.5211 29.7755 73.4702 29.951 73.4209 30.1262C73.2308 30.9574 73.1482 31.7253 73.3277 32.567C73.3981 32.8142 73.4887 33.0555 73.5984 33.2884C73.7403 33.5789 73.9309 33.8438 74.1622 34.0719C74.7247 34.6222 75.376 34.8795 76.147 35.0222C76.508 35.0662 76.8716 35.0864 77.2354 35.0827C77.7407 35.0666 78.2428 34.9978 78.7334 34.8775C79.1052 34.7871 79.4714 34.6754 79.83 34.5429C80.5321 34.2711 81.181 33.9373 81.8302 33.5621C82.2067 33.3193 82.5792 33.0692 82.95 32.8175V33.2884C82.95 33.8042 83.134 34.2579 83.5675 34.5585C83.9591 34.7934 84.3527 34.8519 84.8033 34.8851C85.4043 34.885 86.003 34.8135 86.5866 34.6723C87.1674 34.5152 87.7369 34.3449 88.2783 34.0792L88.4004 34.0186V34.011L88.3304 33.8968C88.1297 33.5429 88.0231 33.1718 87.9295 32.7794C87.8802 32.3742 87.8448 31.9874 87.8672 31.577C87.9001 31.0159 87.9893 30.4741 88.076 29.9198C88.1802 29.4332 88.2877 28.9467 88.3927 28.4601C88.4887 28.117 88.5673 27.7667 88.6703 27.4261L89.9602 22.4006C90.1637 21.6415 90.3848 20.8896 90.5468 20.1197L90.5464 20.1189ZM82.0215 26.4914C82.4623 26.3955 82.9084 26.3244 83.3575 26.2786C83.7824 26.2337 84.2041 26.2049 84.6315 26.1872L83.8435 29.0537C83.493 29.3563 83.1405 29.6657 82.7628 29.9354C82.6183 30.0384 82.4742 30.1438 82.3301 30.2468C81.9031 30.5145 81.485 30.7755 81.0409 31.0151C80.8553 31.0977 80.6746 31.1907 80.4849 31.2656C79.8825 31.5061 79.1339 31.7602 78.4846 31.5462C78.3773 31.5135 78.2757 31.4647 78.1834 31.4015C77.951 31.2123 77.8769 31.0007 77.8207 30.7173C77.7996 30.4941 77.8289 30.2628 77.8594 30.0412C78.0629 29.2849 78.3332 28.6865 78.8551 28.087C79.4522 27.513 80.0974 27.1203 80.8785 26.8169C81.2526 26.6857 81.6343 26.5766 82.0215 26.4902V26.4914ZM74.8863 13.269C75.4318 14.0345 75.8172 14.7712 76.0835 15.6737C76.3198 16.6851 76.3798 17.7287 76.2609 18.7598C76.1897 19.2628 76.0981 19.7554 75.9829 20.2499C75.6835 21.3329 75.2774 22.3845 74.7703 23.3897C74.0869 24.6125 73.3188 25.75 72.3996 26.8189C72.0439 27.2197 71.6808 27.6156 71.3035 27.9976C70.7991 28.4934 70.2858 28.9771 69.7514 29.4404C69.2393 29.8741 68.7146 30.2921 68.1838 30.7029C67.1686 31.4468 66.1323 32.1325 65.0255 32.7401C64.3718 33.0804 63.714 33.3922 63.033 33.6756C61.7121 34.1749 60.4165 34.5349 59.0174 34.7477C58.3462 34.8277 57.6709 34.8708 56.9948 34.8767C56.3435 34.8767 55.6833 34.8599 55.041 34.7477C54.5419 34.7052 54.1959 34.7837 53.7054 34.831C53.4038 34.8976 53.0391 34.8811 52.7322 34.8619C51.8077 34.7938 51.1805 34.304 51.1805 33.3489C51.186 33.119 51.2116 32.89 51.257 32.6644C51.5419 31.5021 51.8753 30.3314 52.122 29.1595C52.9145 26.0437 53.5345 22.8162 54.2305 19.6936C55.8994 18.4039 57.5997 17.1571 59.3655 15.998L59.4428 15.9447L56.5316 30.4749L56.8165 30.5282C57.1933 30.6114 57.5752 30.6698 57.9599 30.7029C58.4235 30.747 58.8847 30.7406 59.3496 30.7406C59.8751 30.7213 60.3937 30.6761 60.9171 30.634C62.8848 30.3959 64.7117 29.8765 66.3069 28.6805C67.0608 28.1435 67.7251 27.4657 68.3015 26.7491C69.1091 25.7436 69.767 24.6298 70.2553 23.4414C70.4594 22.9282 70.6298 22.4027 70.7653 21.8679C71.0117 20.9496 71.1388 20.0042 71.1435 19.0544C71.1437 18.5872 71.0972 18.1211 71.0047 17.6629C70.7332 16.4288 70.0685 15.3816 69.0354 14.6297C68.5541 14.2987 68.0359 14.0231 67.491 13.8081C66.845 13.5859 66.1811 13.4181 65.5062 13.3067C64.9921 13.2293 64.4805 13.1864 63.9623 13.1544L64.0315 13.1143L64.4328 12.8863C65.2555 12.4362 66.0814 11.9901 66.9045 11.5408C67.8268 11.0691 68.7614 10.619 69.6919 10.1645L69.8311 10.104C70.2423 10.2198 70.6424 10.3597 71.0429 10.5048C71.8078 10.8366 72.5319 11.1957 73.2129 11.6755C73.854 12.148 74.3832 12.669 74.8888 13.2642L74.8863 13.269ZM30.07 31.4488C30.578 31.26 31.0339 30.9795 31.4597 30.6504C31.7604 30.4109 32.0371 30.1435 32.286 29.852C32.5756 29.4969 32.8413 29.1235 33.0814 28.7342C33.3869 28.1972 33.6379 27.6317 33.8307 27.0461C34.0494 26.3855 34.217 25.7096 34.3322 25.0241C34.4553 24.3161 34.4994 23.597 34.4637 22.8795C34.4164 22.3869 34.3179 21.9003 34.1698 21.4275C34.0339 21.0235 33.8035 20.6587 33.5523 20.3177C33.2307 19.9293 32.7598 19.6139 32.286 19.4359C31.8464 19.268 31.3188 19.2079 30.8499 19.2079C30.1539 19.2048 29.4632 19.3257 28.811 19.565C28.2757 19.7654 27.7685 20.1017 27.3208 20.4467C26.9859 20.7278 26.6831 21.0439 26.4175 21.3894C26.1921 21.6691 25.9906 21.9667 25.8151 22.2791C25.5074 22.8234 25.2737 23.3825 25.0584 23.9673C24.8578 24.5658 24.703 25.1784 24.5952 25.7997C24.5104 26.2622 24.4536 26.7293 24.425 27.1984C24.4042 27.6067 24.4145 28.016 24.4559 28.4228C24.4872 28.7346 24.5492 29.0427 24.6412 29.3426C24.7426 29.6511 24.8691 29.9511 25.0193 30.2396C25.1694 30.4898 25.3483 30.722 25.5525 30.9318C25.7932 31.1735 26.079 31.3672 26.3943 31.5021C26.6931 31.6484 27.0456 31.7281 27.3749 31.7678C27.887 31.8315 28.3775 31.8079 28.8883 31.753C29.2901 31.6859 29.6851 31.5841 30.0688 31.4488H30.07ZM30.819 16.0449C31.8298 15.9045 32.8547 15.891 33.869 16.0048C34.4591 16.0873 35.0388 16.2299 35.599 16.4304C36.8796 16.9466 37.7604 17.7286 38.5098 18.864C38.7459 19.3073 38.9539 19.7425 39.0972 20.2243C39.3352 21.1244 39.4186 22.0573 39.3438 22.9845C39.3051 23.5383 39.2198 24.0879 39.089 24.6278C38.8676 25.7748 38.3681 26.9018 37.7995 27.9198C37.3623 28.7018 36.8079 29.4304 36.2706 30.1474C35.4998 31.0642 34.6297 31.8954 33.6757 32.6263C33.2148 32.9685 32.7354 33.2859 32.2396 33.577C31.3949 34.0546 30.4922 34.4249 29.553 34.6791C29.0812 34.8064 28.6013 34.9029 28.1166 34.9681C27.1135 35.1093 26.0962 35.1227 25.0897 35.0082C24.8178 34.9681 24.5479 34.924 24.2789 34.8715C22.8509 34.4928 21.7657 33.9096 20.8112 32.7806C20.5811 32.4865 20.3788 32.1723 20.2067 31.842C19.9366 31.278 19.7394 30.6828 19.6198 30.0705C19.5308 29.469 19.4999 28.8605 19.5274 28.2533C19.5628 27.7323 19.6418 27.2173 19.728 26.7018C19.831 26.2742 19.9385 25.8554 20.0598 25.4325C20.1848 25.0686 20.3171 24.7027 20.4697 24.3472V24.3396L20.5393 24.1873C20.7151 23.8242 20.891 23.4607 21.0876 23.1076C21.4792 22.3721 21.986 21.6611 22.5082 21.0094C22.8208 20.6399 23.1306 20.28 23.466 19.9297C24.3957 18.9591 25.4617 18.1245 26.6316 17.4512C27.2398 17.1016 27.8813 16.8114 28.5468 16.5847C29.2827 16.3281 30.0436 16.1472 30.8173 16.0449H30.819ZM20.9557 10.5388L21.0563 10.6591C21.1514 10.7866 21.2317 10.9243 21.2956 11.0695C21.3672 11.2655 21.4113 11.4702 21.4267 11.6779C21.4242 11.8879 21.3984 12.097 21.3497 12.3015C21.1869 12.8289 20.9366 13.2802 20.617 13.7307C20.394 14.0016 20.1835 14.2786 19.945 14.5367L19.389 15.1447L18.8948 14.4605C18.7107 14.2066 18.4864 13.9833 18.2305 13.7992C18.0591 13.6826 17.8865 13.5816 17.7058 13.4786C16.9227 13.1416 15.9889 12.9616 15.1341 12.9616C14.6075 12.957 14.0812 12.9875 13.5588 13.053C12.9876 13.1295 12.4293 13.2803 11.8984 13.5015C11.5363 13.6675 11.1949 13.8741 10.8808 14.1171C10.6509 14.3137 10.4508 14.5416 10.2865 14.794C10.0219 15.2104 9.89614 15.7158 9.98528 16.2004C10.0805 16.5146 10.2368 16.7262 10.4485 16.9759C11.1267 17.6436 12.0006 18.1462 12.8424 18.5879C13.6158 19.0143 14.4095 19.4087 15.1898 19.8195C16.1493 20.3181 17.0085 20.9269 17.7457 21.7132C18.6624 22.7793 19.1561 24.0061 19.1973 25.4081C19.1798 26.0249 19.0804 26.6012 18.9583 27.2024C18.7226 28.0733 18.4173 28.8938 17.9232 29.6581C17.6699 30.0221 17.3967 30.3723 17.105 30.7073C16.9422 30.8889 16.7696 31.0604 16.5954 31.232C16.0796 31.7129 15.5501 32.1666 14.9582 32.5546C14.6191 32.7814 14.2703 32.9974 13.9158 33.2002C13.1163 33.6455 12.2591 34.0603 11.392 34.3561C10.9393 34.5281 10.4773 34.6753 10.0081 34.797C9.15327 35.0234 8.3123 35.1388 7.43633 35.2378C7.05451 35.2519 6.67677 35.2683 6.29373 35.2683C5.2306 35.2677 4.17544 35.0877 3.17409 34.736C2.69459 34.5292 2.23788 34.3076 1.80722 34.0146C1.14047 33.5601 0.680093 32.9582 0.509945 32.1742C0.471683 31.6384 0.541696 31.1478 0.757026 30.6536C1.15431 29.8156 1.82716 29.1751 2.58876 28.6469C2.81345 28.4906 3.04547 28.3411 3.284 28.206L4.29552 27.6128V28.7006C4.30722 28.9144 4.33031 29.1276 4.36472 29.339C4.59348 30.1631 4.96919 30.6372 5.67787 31.1257C6.01124 31.3037 6.33363 31.47 6.70445 31.5738C7.83768 31.9173 9.04296 31.9221 10.2104 31.787C10.7762 31.682 11.3192 31.5686 11.8475 31.3309C12.433 31.0823 12.9649 30.7262 13.4151 30.2817C13.724 29.9422 13.9728 29.612 14.1795 29.202C14.6334 28.2337 14.8984 27.0237 14.1486 26.1379L14.1103 26.0922C13.8628 25.8045 13.5246 25.5852 13.2148 25.3708C12.8927 25.1539 12.5546 24.9608 12.2033 24.7933C10.8193 24.0747 9.32097 23.4001 8.05667 22.4663C7.67955 22.1906 7.32326 21.8883 6.9906 21.5617C6.73641 21.2975 6.50875 21.0098 6.31083 20.7024C5.58099 19.5345 5.56959 18.1045 5.86307 16.802C6.00626 16.1905 6.21079 15.5945 6.47365 15.0229C7.0097 13.9504 7.7609 12.996 8.6819 12.2173C8.91107 12.0226 9.15083 11.8406 9.39261 11.6622C10.7868 10.7288 12.2285 10.1344 13.8702 9.76932C14.8559 9.58818 15.856 9.49429 16.8587 9.48877C17.1266 9.48877 17.394 9.49598 17.6614 9.5036C18.2647 9.54007 18.8496 9.60059 19.4378 9.73966C19.7319 9.81756 20.018 9.92194 20.2926 10.0515C20.5355 10.1832 20.759 10.3469 20.9569 10.538L20.9557 10.5388Z" fill="#1D1D1B"/>
<path fill-rule="evenodd" clip-rule="evenodd" d="M53.7357 7.71044C69.2956 4.41797 85.4193 1.75713 89.929 1.44532C72.3229 4.72216 73.172 5.00352 55.5967 10.4322C65.5288 8.28798 83.9275 2.18277 97.3805 0.85335C98.0908 0.785216 98.0908 1.22568 97.4041 1.2333C77.6821 3.94784 64.3459 10.1977 53.7357 18.3871C44.0601 25.861 36.6628 34.9396 28.8014 44.4355C28.5315 44.763 28.0833 44.5497 28.0605 44.2912V44.2459C28.0665 44.1989 28.0851 44.1542 28.1143 44.1165C38.6545 30.2556 50.091 16.8055 48.1005 14.091C46.6799 12.1524 44.9731 9.28634 30.1703 14.0156C29.3517 14.3118 29.6069 13.7187 30.1394 13.5511C36.3856 11.6021 44.9711 9.55808 53.7357 7.71044ZM53.7357 6.91969C54.6719 6.34936 55.5198 4.98067 55.7123 3.63522C55.9366 2.09179 55.2341 1.14833 54.1375 1.52868C53.9979 1.57965 53.8634 1.64325 53.7357 1.71865C52.7934 2.29699 51.9447 3.66528 51.7509 5.01113C51.5274 6.54695 52.23 7.49602 53.3266 7.11727C53.4688 7.06532 53.6052 6.99911 53.7337 6.91969H53.7357Z" fill="#1D1D1B"/>
</svg>
